<?xml version="1.0" encoding="utf-8" ?>
<svg baseProfile="full" height="500" version="1.1" width="807" xmlns="http://www.w3.org/2000/svg" xmlns:ev="http://www.w3.org/2001/xml-events" xmlns:xlink="http://www.w3.org/1999/xlink"><defs /><path d="M 271,57 L 271,59 L 270,60 L 270,62 L 269,63 L 269,64 L 268,65 L 268,67 L 266,69 L 266,72 L 265,73 L 265,74 L 264,75 L 264,77 L 262,79 L 262,82 L 260,84 L 260,87 L 258,89 L 258,93 L 256,95 L 256,98 L 255,99 L 255,100 L 254,101 L 254,107 L 255,108 L 255,109 L 256,110 L 256,115 L 255,116 L 253,116 L 251,118 L 248,118 L 246,120 L 243,120 L 242,121 L 241,121 L 240,122 L 232,122 L 231,123 L 229,123 L 228,124 L 223,124 L 222,125 L 219,125 L 218,126 L 217,126 L 215,128 L 212,128 L 214,128 L 216,130 L 216,132 L 217,133 L 214,136 L 211,136 L 210,137 L 201,137 L 200,136 L 200,135 L 200,136 L 199,137 L 198,137 L 197,138 L 196,138 L 192,142 L 192,145 L 196,149 L 196,152 L 195,153 L 195,154 L 194,155 L 194,159 L 192,161 L 191,161 L 190,160 L 187,160 L 185,158 L 179,158 L 178,157 L 178,156 L 178,158 L 177,159 L 176,159 L 174,161 L 174,165 L 170,169 L 170,172 L 172,174 L 172,176 L 174,178 L 174,185 L 171,188 L 170,188 L 168,190 L 166,190 L 168,190 L 169,191 L 169,194 L 170,195 L 170,200 L 171,201 L 171,202 L 179,210 L 180,210 L 181,211 L 181,214 L 180,215 L 180,216 L 179,217 L 178,217 L 176,219 L 176,220 L 174,222 L 174,223 L 172,225 L 172,226 L 170,228 L 166,228 L 165,229 L 164,229 L 163,230 L 163,232 L 162,233 L 162,238 L 163,239 L 163,241 L 164,242 L 164,249 L 163,250 L 159,250 L 158,251 L 157,251 L 156,252 L 153,252 L 151,254 L 150,254 L 149,255 L 149,259 L 150,260 L 150,263 L 152,265 L 152,267 L 154,269 L 154,271 L 155,272 L 155,273 L 156,274 L 156,280 L 154,282 L 153,282 L 151,284 L 150,284 L 142,292 L 142,293 L 139,296 L 138,296 L 137,297 L 137,298 L 136,299 L 136,300 L 135,301 L 135,302 L 136,303 L 142,303 L 146,307 L 146,308 L 147,309 L 147,310 L 148,311 L 148,313 L 149,314 L 149,315 L 150,316 L 150,325 L 151,326 L 152,326 L 153,327 L 157,327 L 159,329 L 159,331 L 160,332 L 163,332 L 160,332 L 159,331 L 159,329 L 157,327 L 153,327 L 152,326 L 151,326 L 150,325 L 150,316 L 149,315 L 149,314 L 148,313 L 148,311 L 147,310 L 147,309 L 146,308 L 146,307 L 142,303 L 136,303 L 135,302 L 135,301 L 136,300 L 136,299 L 137,298 L 137,297 L 138,296 L 139,296 L 142,293 L 142,292 L 150,284 L 151,284 L 153,282 L 154,282 L 156,280 L 156,274 L 155,273 L 155,272 L 154,271 L 154,269 L 152,267 L 152,265 L 150,263 L 150,260 L 149,259 L 149,255 L 150,254 L 151,254 L 153,252 L 156,252 L 157,251 L 158,251 L 159,250 L 163,250 L 165,248 L 167,248 L 165,248 L 164,247 L 164,242 L 163,241 L 163,239 L 162,238 L 162,233 L 163,232 L 163,230 L 164,229 L 165,229 L 166,228 L 170,228 L 172,226 L 172,225 L 174,223 L 174,222 L 176,220 L 176,219 L 178,217 L 179,217 L 180,216 L 180,215 L 181,214 L 181,211 L 180,210 L 179,210 L 171,202 L 171,201 L 170,200 L 170,195 L 169,194 L 169,189 L 170,188 L 171,188 L 174,185 L 174,178 L 172,176 L 172,174 L 170,172 L 170,169 L 174,165 L 174,161 L 176,159 L 177,159 L 178,158 L 185,158 L 187,160 L 190,160 L 191,161 L 192,161 L 194,159 L 194,155 L 195,154 L 195,153 L 196,152 L 196,149 L 192,145 L 192,142 L 196,138 L 197,138 L 198,137 L 210,137 L 211,136 L 214,136 L 218,132 L 217,133 L 216,132 L 216,130 L 215,129 L 215,128 L 217,126 L 218,126 L 219,125 L 222,125 L 223,124 L 228,124 L 229,123 L 231,123 L 232,122 L 240,122 L 241,121 L 242,121 L 243,120 L 246,120 L 248,118 L 251,118 L 253,116 L 255,116 L 256,115 L 256,110 L 255,109 L 255,108 L 254,107 L 254,101 L 255,100 L 255,99 L 256,98 L 256,95 L 258,93 L 258,89 L 260,87 L 260,84 L 262,82 L 262,79 L 264,77 L 264,75 L 265,74 L 265,73 L 266,72 L 266,69 L 268,67 L 268,65 L 269,64 L 269,63 L 270,62 L 270,60 L 272,58 L 273,59 L 275,59 L 278,62 L 278,63 L 282,67 L 282,68 L 284,70 L 287,70 L 288,69 L 290,69 L 291,68 L 301,68 L 302,67 L 303,67 L 304,66 L 313,66 L 314,67 L 314,69 L 316,71 L 316,73 L 318,75 L 318,77 L 320,79 L 320,80 L 321,81 L 321,82 L 322,83 L 322,84 L 323,85 L 323,86 L 324,87 L 324,88 L 325,89 L 325,90 L 326,91 L 326,93 L 328,95 L 328,97 L 330,99 L 330,101 L 332,103 L 332,105 L 334,107 L 334,110 L 335,111 L 335,112 L 332,115 L 332,119 L 331,120 L 330,120 L 329,121 L 328,121 L 326,123 L 326,125 L 322,129 L 322,131 L 321,132 L 321,133 L 320,134 L 318,134 L 319,134 L 320,135 L 320,136 L 321,137 L 321,138 L 323,140 L 326,140 L 329,143 L 329,144 L 332,147 L 332,148 L 333,149 L 333,150 L 337,154 L 341,154 L 342,153 L 348,153 L 349,152 L 351,152 L 352,151 L 353,152 L 355,152 L 356,153 L 357,153 L 358,154 L 360,154 L 362,156 L 363,156 L 364,157 L 364,158 L 365,159 L 365,160 L 364,161 L 364,166 L 363,167 L 363,168 L 362,169 L 362,174 L 361,175 L 361,176 L 357,180 L 353,180 L 352,181 L 351,181 L 350,182 L 347,182 L 346,183 L 345,183 L 344,184 L 342,184 L 340,186 L 339,186 L 337,188 L 337,189 L 338,190 L 338,192 L 341,195 L 345,195 L 346,196 L 346,197 L 348,199 L 348,201 L 351,204 L 357,204 L 359,206 L 362,206 L 363,207 L 368,207 L 369,206 L 371,206 L 372,205 L 373,205 L 374,204 L 375,204 L 377,202 L 379,202 L 384,207 L 384,209 L 387,212 L 390,212 L 392,214 L 392,219 L 394,221 L 394,223 L 395,224 L 395,225 L 396,226 L 396,228 L 397,229 L 397,230 L 399,232 L 399,233 L 400,234 L 400,235 L 402,237 L 402,239 L 401,240 L 401,241 L 400,242 L 400,245 L 405,250 L 407,250 L 413,256 L 414,256 L 416,258 L 416,259 L 418,261 L 418,262 L 419,263 L 419,264 L 424,269 L 424,270 L 427,273 L 427,274 L 434,281 L 434,282 L 436,284 L 439,284 L 441,286 L 443,286 L 445,288 L 446,288 L 447,289 L 446,290 L 448,288 L 453,288 L 455,290 L 459,290 L 460,291 L 461,291 L 462,292 L 468,292 L 471,295 L 471,296 L 470,297 L 470,302 L 469,303 L 470,304 L 470,305 L 471,306 L 472,306 L 473,307 L 473,308 L 474,309 L 476,309 L 477,308 L 483,308 L 485,306 L 505,306 L 506,307 L 507,307 L 508,308 L 516,308 L 517,309 L 518,309 L 519,310 L 526,310 L 528,312 L 530,312 L 531,313 L 532,313 L 533,314 L 542,314 L 543,315 L 543,318 L 538,323 L 538,326 L 539,327 L 539,328 L 542,331 L 542,338 L 543,339 L 543,340 L 535,348 L 535,349 L 534,350 L 534,351 L 533,352 L 533,353 L 532,354 L 529,354 L 528,355 L 527,355 L 526,356 L 521,356 L 520,357 L 518,357 L 517,358 L 503,358 L 500,361 L 500,363 L 496,367 L 496,368 L 495,369 L 495,370 L 489,376 L 487,376 L 484,379 L 483,379 L 481,381 L 480,381 L 479,382 L 477,382 L 475,384 L 473,384 L 471,386 L 470,386 L 468,388 L 467,388 L 459,396 L 457,396 L 454,399 L 454,403 L 456,405 L 456,407 L 458,409 L 458,411 L 462,415 L 462,417 L 464,419 L 464,421 L 462,423 L 462,426 L 460,428 L 459,428 L 458,429 L 458,431 L 457,432 L 457,434 L 455,436 L 453,436 L 452,437 L 451,437 L 450,436 L 449,436 L 448,435 L 447,435 L 446,434 L 445,434 L 441,430 L 440,430 L 439,429 L 438,429 L 435,426 L 434,426 L 432,424 L 431,424 L 429,422 L 428,422 L 426,420 L 425,420 L 423,418 L 420,418 L 418,420 L 417,420 L 416,421 L 409,421 L 408,422 L 405,422 L 403,424 L 399,424 L 398,425 L 397,425 L 396,426 L 393,426 L 392,427 L 391,427 L 390,428 L 385,428 L 384,427 L 384,426 L 383,425 L 383,424 L 381,422 L 378,422 L 377,421 L 376,421 L 375,420 L 373,420 L 370,417 L 370,413 L 368,411 L 368,410 L 366,408 L 366,407 L 362,403 L 362,401 L 363,400 L 363,399 L 364,398 L 364,396 L 366,394 L 366,392 L 368,390 L 368,385 L 367,384 L 366,384 L 365,383 L 364,383 L 363,382 L 361,382 L 359,380 L 356,380 L 354,378 L 352,378 L 351,377 L 350,377 L 349,376 L 347,376 L 345,374 L 343,374 L 342,373 L 341,373 L 340,372 L 337,372 L 335,370 L 333,370 L 331,368 L 329,368 L 327,366 L 324,366 L 323,365 L 322,365 L 321,364 L 320,364 L 316,360 L 315,360 L 312,357 L 312,354 L 310,352 L 308,352 L 307,351 L 301,351 L 300,350 L 293,350 L 292,351 L 290,351 L 289,350 L 289,348 L 295,342 L 297,342 L 299,340 L 301,340 L 303,338 L 305,338 L 306,337 L 307,337 L 308,336 L 308,335 L 310,333 L 310,331 L 312,329 L 312,327 L 314,325 L 314,323 L 316,321 L 316,315 L 318,313 L 318,305 L 320,303 L 320,299 L 321,298 L 321,297 L 323,295 L 323,290 L 324,289 L 324,279 L 322,277 L 322,275 L 320,273 L 320,272 L 319,271 L 319,270 L 318,269 L 318,268 L 317,267 L 317,266 L 318,265 L 319,265 L 320,264 L 322,264 L 323,263 L 325,263 L 326,262 L 326,261 L 327,260 L 328,260 L 330,258 L 337,258 L 338,257 L 341,257 L 342,258 L 349,258 L 351,256 L 351,253 L 350,252 L 350,248 L 349,247 L 349,245 L 348,244 L 348,240 L 347,239 L 347,238 L 346,237 L 346,231 L 344,229 L 344,224 L 343,223 L 343,221 L 342,220 L 342,216 L 341,215 L 341,214 L 340,213 L 340,212 L 338,210 L 339,209 L 340,209 L 339,209 L 338,208 L 338,206 L 338,210 L 336,212 L 335,212 L 330,217 L 330,218 L 328,220 L 327,220 L 323,224 L 322,224 L 320,226 L 319,226 L 305,240 L 304,240 L 302,242 L 300,242 L 298,240 L 298,239 L 298,240 L 299,241 L 299,243 L 300,244 L 300,246 L 301,247 L 301,248 L 305,252 L 305,253 L 306,254 L 306,255 L 308,257 L 308,261 L 306,263 L 306,265 L 305,266 L 305,267 L 304,268 L 303,268 L 302,269 L 302,271 L 298,275 L 298,276 L 297,277 L 297,278 L 296,279 L 293,279 L 292,278 L 291,278 L 289,276 L 283,276 L 282,275 L 282,274 L 282,277 L 280,279 L 279,279 L 278,278 L 275,278 L 273,276 L 270,276 L 269,277 L 268,277 L 267,278 L 267,279 L 266,280 L 265,280 L 261,284 L 255,284 L 254,285 L 252,285 L 251,286 L 245,286 L 243,288 L 241,288 L 240,289 L 239,289 L 238,288 L 237,288 L 235,286 L 233,286 L 231,288 L 229,288 L 227,290 L 221,290 L 218,293 L 218,296 L 217,297 L 217,298 L 216,299 L 216,305 L 213,308 L 213,313 L 212,314 L 211,314 L 210,315 L 209,315 L 208,316 L 205,316 L 204,315 L 202,315 L 201,316 L 199,316 L 198,317 L 198,319 L 197,320 L 197,322 L 196,323 L 196,324 L 194,326 L 193,326 L 190,329 L 190,331 L 184,337 L 184,341 L 182,343 L 181,343 L 180,342 L 179,342 L 172,335 L 171,335 L 170,334 L 169,334 L 168,333 L 169,334 L 170,334 L 171,335 L 172,335 L 179,342 L 180,342 L 181,343 L 182,343 L 184,341 L 184,337 L 190,331 L 190,329 L 193,326 L 194,326 L 196,324 L 196,323 L 197,322 L 197,320 L 198,319 L 198,317 L 199,316 L 201,316 L 202,315 L 204,315 L 205,316 L 208,316 L 209,315 L 210,315 L 211,314 L 212,314 L 213,313 L 213,308 L 216,305 L 216,299 L 217,298 L 217,297 L 218,296 L 218,293 L 221,290 L 227,290 L 229,288 L 231,288 L 233,286 L 235,286 L 237,288 L 238,288 L 239,289 L 240,289 L 241,288 L 243,288 L 245,286 L 251,286 L 252,285 L 254,285 L 255,284 L 261,284 L 265,280 L 266,280 L 267,279 L 267,278 L 268,277 L 269,277 L 270,276 L 273,276 L 275,278 L 278,278 L 279,279 L 280,279 L 283,276 L 289,276 L 291,278 L 292,278 L 293,279 L 296,279 L 297,278 L 297,277 L 298,276 L 298,275 L 302,271 L 302,269 L 303,268 L 304,268 L 305,267 L 305,266 L 306,265 L 306,263 L 308,261 L 308,257 L 306,255 L 306,254 L 305,253 L 305,252 L 301,248 L 301,247 L 300,246 L 300,244 L 299,243 L 300,242 L 302,242 L 304,240 L 305,240 L 319,226 L 320,226 L 322,224 L 323,224 L 327,220 L 328,220 L 330,218 L 330,217 L 335,212 L 336,212 L 337,211 L 339,211 L 340,212 L 340,213 L 341,214 L 341,215 L 342,216 L 342,220 L 343,221 L 343,223 L 344,224 L 344,229 L 346,231 L 346,237 L 347,238 L 347,239 L 348,240 L 348,244 L 349,245 L 349,247 L 350,248 L 350,252 L 351,253 L 351,256 L 349,258 L 342,258 L 341,257 L 338,257 L 337,258 L 330,258 L 328,260 L 327,260 L 326,261 L 326,262 L 325,263 L 323,263 L 322,264 L 321,264 L 320,263 L 320,262 L 320,264 L 319,265 L 318,265 L 317,266 L 317,267 L 318,268 L 318,269 L 319,270 L 319,271 L 320,272 L 320,273 L 322,275 L 322,277 L 324,279 L 324,289 L 323,290 L 323,295 L 321,297 L 321,298 L 320,299 L 320,303 L 318,305 L 318,313 L 316,315 L 316,321 L 314,323 L 314,325 L 312,327 L 312,329 L 310,331 L 310,333 L 308,335 L 308,336 L 307,337 L 306,337 L 305,338 L 303,338 L 301,340 L 299,340 L 297,342 L 295,342 L 289,348 L 289,349 L 288,350 L 284,350 L 289,350 L 290,351 L 292,351 L 293,350 L 300,350 L 301,351 L 307,351 L 308,352 L 310,352 L 312,354 L 312,357 L 315,360 L 316,360 L 320,364 L 321,364 L 322,365 L 323,365 L 324,366 L 327,366 L 329,368 L 331,368 L 333,370 L 335,370 L 337,372 L 340,372 L 341,373 L 342,373 L 343,374 L 345,374 L 347,376 L 349,376 L 350,377 L 351,377 L 352,378 L 354,378 L 356,380 L 359,380 L 361,382 L 363,382 L 364,383 L 365,383 L 366,384 L 367,384 L 368,385 L 368,390 L 366,392 L 366,394 L 364,396 L 364,398 L 363,399 L 363,400 L 362,401 L 362,403 L 366,407 L 366,408 L 368,410 L 368,411 L 370,413 L 370,417 L 373,420 L 375,420 L 376,421 L 377,421 L 378,422 L 381,422 L 383,424 L 383,425 L 384,426 L 384,427 L 385,428 L 390,428 L 391,427 L 392,427 L 393,426 L 396,426 L 397,425 L 398,425 L 399,424 L 403,424 L 405,422 L 408,422 L 409,421 L 416,421 L 417,420 L 418,420 L 420,418 L 423,418 L 425,420 L 426,420 L 428,422 L 429,422 L 431,424 L 432,424 L 434,426 L 435,426 L 438,429 L 439,429 L 440,430 L 441,430 L 445,434 L 446,434 L 447,435 L 448,435 L 449,436 L 450,436 L 451,437 L 451,441 L 452,442 L 452,443 L 453,444 L 454,444 L 456,446 L 457,446 L 460,449 L 460,450 L 461,451 L 461,452 L 462,453 L 462,458 L 464,460 L 466,460 L 468,462 L 468,468 L 469,469 L 470,469 L 471,468 L 473,468 L 475,466 L 475,465 L 476,464 L 476,463 L 478,461 L 478,459 L 486,451 L 486,446 L 485,445 L 473,445 L 472,444 L 472,443 L 471,442 L 469,442 L 468,441 L 467,441 L 466,440 L 463,440 L 462,439 L 461,439 L 459,437 L 458,437 L 456,435 L 457,434 L 457,432 L 458,431 L 458,429 L 459,428 L 460,428 L 462,426 L 462,423 L 465,420 L 467,420 L 465,420 L 462,417 L 462,415 L 458,411 L 458,409 L 456,407 L 456,405 L 454,403 L 454,399 L 457,396 L 459,396 L 467,388 L 468,388 L 470,386 L 471,386 L 473,384 L 475,384 L 477,382 L 479,382 L 480,381 L 481,381 L 483,379 L 484,379 L 487,376 L 489,376 L 495,370 L 495,369 L 496,368 L 496,367 L 500,363 L 500,361 L 503,358 L 517,358 L 518,357 L 520,357 L 521,356 L 526,356 L 527,355 L 528,355 L 529,354 L 532,354 L 533,353 L 533,352 L 534,351 L 534,350 L 535,349 L 535,348 L 543,340 L 543,339 L 544,338 L 543,339 L 542,338 L 542,331 L 539,328 L 539,327 L 538,326 L 538,323 L 543,318 L 543,316 L 544,315 L 546,315 L 547,314 L 549,314 L 547,314 L 546,315 L 543,315 L 542,314 L 533,314 L 532,313 L 531,313 L 530,312 L 528,312 L 526,310 L 519,310 L 518,309 L 517,309 L 516,308 L 508,308 L 507,307 L 506,307 L 505,306 L 485,306 L 483,308 L 477,308 L 476,309 L 474,309 L 473,308 L 473,307 L 472,306 L 471,306 L 470,305 L 470,304 L 469,303 L 470,302 L 470,297 L 471,296 L 471,295 L 472,294 L 471,295 L 468,292 L 462,292 L 461,291 L 460,291 L 459,290 L 455,290 L 453,288 L 445,288 L 443,286 L 441,286 L 439,284 L 436,284 L 434,282 L 434,281 L 427,274 L 427,273 L 424,270 L 424,269 L 419,264 L 419,263 L 418,262 L 418,261 L 416,259 L 416,258 L 414,256 L 413,256 L 407,250 L 405,250 L 400,245 L 400,242 L 401,241 L 401,240 L 402,239 L 402,237 L 400,235 L 400,234 L 399,233 L 399,232 L 397,230 L 397,229 L 396,228 L 396,226 L 395,225 L 395,224 L 394,223 L 394,221 L 392,219 L 392,213 L 393,212 L 395,212 L 396,211 L 395,212 L 393,212 L 392,213 L 391,213 L 390,212 L 387,212 L 384,209 L 384,207 L 380,203 L 380,201 L 381,200 L 379,202 L 377,202 L 375,204 L 374,204 L 373,205 L 372,205 L 371,206 L 369,206 L 368,207 L 363,207 L 362,206 L 359,206 L 357,204 L 351,204 L 348,201 L 348,199 L 346,197 L 346,196 L 345,195 L 341,195 L 338,192 L 338,190 L 337,189 L 337,188 L 339,186 L 340,186 L 342,184 L 344,184 L 345,183 L 346,183 L 347,182 L 350,182 L 351,181 L 352,181 L 353,180 L 357,180 L 361,176 L 361,175 L 362,174 L 362,169 L 363,168 L 363,167 L 364,166 L 364,161 L 365,160 L 365,159 L 364,158 L 364,157 L 363,156 L 362,156 L 360,154 L 358,154 L 357,153 L 356,153 L 355,152 L 353,152 L 352,151 L 351,152 L 349,152 L 348,153 L 342,153 L 341,154 L 337,154 L 333,150 L 333,149 L 332,148 L 332,147 L 329,144 L 329,143 L 326,140 L 323,140 L 321,138 L 321,137 L 320,136 L 320,134 L 321,133 L 321,132 L 322,131 L 322,129 L 326,125 L 326,123 L 328,121 L 329,121 L 330,120 L 331,120 L 332,119 L 332,115 L 335,112 L 335,111 L 334,110 L 334,107 L 332,105 L 332,103 L 330,101 L 330,99 L 328,97 L 328,95 L 326,93 L 326,91 L 325,90 L 325,89 L 324,88 L 324,87 L 323,86 L 323,85 L 322,84 L 322,83 L 321,82 L 321,81 L 320,80 L 320,79 L 318,77 L 318,75 L 316,73 L 316,71 L 314,69 L 314,67 L 313,66 L 304,66 L 303,67 L 302,67 L 301,68 L 292,68 L 290,66 L 290,65 L 290,66 L 291,67 L 291,68 L 290,69 L 288,69 L 287,70 L 284,70 L 282,68 L 282,67 L 278,63 L 278,62 L 275,59 L 273,59" fill="none" stroke="black" stroke-width="2" /></svg>