<?xml version="1.0" encoding="utf-8" ?>
<svg baseProfile="full" height="500" version="1.1" width="807" xmlns="http://www.w3.org/2000/svg" xmlns:ev="http://www.w3.org/2001/xml-events" xmlns:xlink="http://www.w3.org/1999/xlink"><defs /><path d="M 136,0 L 136,2 L 135,3 L 135,5 L 134,6 L 134,7 L 133,8 L 133,10 L 131,12 L 131,15 L 130,16 L 130,17 L 129,18 L 129,20 L 127,22 L 127,25 L 125,27 L 125,30 L 123,32 L 123,36 L 121,38 L 121,41 L 120,42 L 120,43 L 119,44 L 119,50 L 120,51 L 120,52 L 121,53 L 121,58 L 120,59 L 118,59 L 116,61 L 113,61 L 111,63 L 108,63 L 107,64 L 106,64 L 105,65 L 97,65 L 96,66 L 94,66 L 93,67 L 88,67 L 87,68 L 84,68 L 83,69 L 82,69 L 80,71 L 77,71 L 79,71 L 81,73 L 81,75 L 82,76 L 79,79 L 76,79 L 75,80 L 66,80 L 65,79 L 65,78 L 65,79 L 64,80 L 63,80 L 62,81 L 61,81 L 57,85 L 57,88 L 61,92 L 61,95 L 60,96 L 60,97 L 59,98 L 59,102 L 57,104 L 56,104 L 55,103 L 52,103 L 50,101 L 44,101 L 43,100 L 43,99 L 43,101 L 42,102 L 41,102 L 39,104 L 39,108 L 35,112 L 35,115 L 37,117 L 37,119 L 39,121 L 39,128 L 36,131 L 35,131 L 33,133 L 31,133 L 33,133 L 34,134 L 34,137 L 35,138 L 35,143 L 36,144 L 36,145 L 44,153 L 45,153 L 46,154 L 46,157 L 45,158 L 45,159 L 44,160 L 43,160 L 41,162 L 41,163 L 39,165 L 39,166 L 37,168 L 37,169 L 35,171 L 31,171 L 30,172 L 29,172 L 28,173 L 28,175 L 27,176 L 27,181 L 28,182 L 28,184 L 29,185 L 29,192 L 28,193 L 24,193 L 23,194 L 22,194 L 21,195 L 18,195 L 16,197 L 15,197 L 14,198 L 14,202 L 15,203 L 15,206 L 17,208 L 17,210 L 19,212 L 19,214 L 20,215 L 20,216 L 21,217 L 21,223 L 19,225 L 18,225 L 16,227 L 15,227 L 7,235 L 7,236 L 4,239 L 3,239 L 2,240 L 2,241 L 1,242 L 1,243 L 0,244 L 0,245 L 1,246 L 7,246 L 11,250 L 11,251 L 12,252 L 12,253 L 13,254 L 13,256 L 14,257 L 14,258 L 15,259 L 15,268 L 16,269 L 17,269 L 18,270 L 22,270 L 24,272 L 24,274 L 25,275 L 28,275 L 25,275 L 24,274 L 24,272 L 22,270 L 18,270 L 17,269 L 16,269 L 15,268 L 15,259 L 14,258 L 14,257 L 13,256 L 13,254 L 12,253 L 12,252 L 11,251 L 11,250 L 7,246 L 1,246 L 0,245 L 0,244 L 1,243 L 1,242 L 2,241 L 2,240 L 3,239 L 4,239 L 7,236 L 7,235 L 15,227 L 16,227 L 18,225 L 19,225 L 21,223 L 21,217 L 20,216 L 20,215 L 19,214 L 19,212 L 17,210 L 17,208 L 15,206 L 15,203 L 14,202 L 14,198 L 15,197 L 16,197 L 18,195 L 21,195 L 22,194 L 23,194 L 24,193 L 28,193 L 30,191 L 32,191 L 30,191 L 29,190 L 29,185 L 28,184 L 28,182 L 27,181 L 27,176 L 28,175 L 28,173 L 29,172 L 30,172 L 31,171 L 35,171 L 37,169 L 37,168 L 39,166 L 39,165 L 41,163 L 41,162 L 43,160 L 44,160 L 45,159 L 45,158 L 46,157 L 46,154 L 45,153 L 44,153 L 36,145 L 36,144 L 35,143 L 35,138 L 34,137 L 34,132 L 35,131 L 36,131 L 39,128 L 39,121 L 37,119 L 37,117 L 35,115 L 35,112 L 39,108 L 39,104 L 41,102 L 42,102 L 43,101 L 50,101 L 52,103 L 55,103 L 56,104 L 57,104 L 59,102 L 59,98 L 60,97 L 60,96 L 61,95 L 61,92 L 57,88 L 57,85 L 61,81 L 62,81 L 63,80 L 75,80 L 76,79 L 79,79 L 83,75 L 82,76 L 81,75 L 81,73 L 80,72 L 80,71 L 82,69 L 83,69 L 84,68 L 87,68 L 88,67 L 93,67 L 94,66 L 96,66 L 97,65 L 105,65 L 106,64 L 107,64 L 108,63 L 111,63 L 113,61 L 116,61 L 118,59 L 120,59 L 121,58 L 121,53 L 120,52 L 120,51 L 119,50 L 119,44 L 120,43 L 120,42 L 121,41 L 121,38 L 123,36 L 123,32 L 125,30 L 125,27 L 127,25 L 127,22 L 129,20 L 129,18 L 130,17 L 130,16 L 131,15 L 131,12 L 133,10 L 133,8 L 134,7 L 134,6 L 135,5 L 135,3 L 137,1 L 138,2 L 140,2 L 143,5 L 143,6 L 147,10 L 147,11 L 149,13 L 152,13 L 153,12 L 155,12 L 156,11 L 166,11 L 167,10 L 168,10 L 169,9 L 178,9 L 179,10 L 179,12 L 181,14 L 181,16 L 183,18 L 183,20 L 185,22 L 185,23 L 186,24 L 186,25 L 187,26 L 187,27 L 188,28 L 188,29 L 189,30 L 189,31 L 190,32 L 190,33 L 191,34 L 191,36 L 193,38 L 193,40 L 195,42 L 195,44 L 197,46 L 197,48 L 199,50 L 199,53 L 200,54 L 200,55 L 197,58 L 197,62 L 196,63 L 195,63 L 194,64 L 193,64 L 191,66 L 191,68 L 187,72 L 187,74 L 186,75 L 186,76 L 185,77 L 183,77 L 184,77 L 185,78 L 185,79 L 186,80 L 186,81 L 188,83 L 191,83 L 194,86 L 194,87 L 197,90 L 197,91 L 198,92 L 198,93 L 202,97 L 206,97 L 207,96 L 213,96 L 214,95 L 216,95 L 217,94 L 218,95 L 220,95 L 221,96 L 222,96 L 223,97 L 225,97 L 227,99 L 228,99 L 229,100 L 229,101 L 230,102 L 230,103 L 229,104 L 229,109 L 228,110 L 228,111 L 227,112 L 227,117 L 226,118 L 226,119 L 222,123 L 218,123 L 217,124 L 216,124 L 215,125 L 212,125 L 211,126 L 210,126 L 209,127 L 207,127 L 205,129 L 204,129 L 202,131 L 202,132 L 203,133 L 203,135 L 206,138 L 210,138 L 211,139 L 211,140 L 213,142 L 213,144 L 216,147 L 222,147 L 224,149 L 227,149 L 228,150 L 233,150 L 234,149 L 236,149 L 237,148 L 238,148 L 239,147 L 240,147 L 242,145 L 244,145 L 249,150 L 249,152 L 252,155 L 255,155 L 257,157 L 257,162 L 259,164 L 259,166 L 260,167 L 260,168 L 261,169 L 261,171 L 262,172 L 262,173 L 264,175 L 264,176 L 265,177 L 265,178 L 267,180 L 267,182 L 266,183 L 266,184 L 265,185 L 265,188 L 270,193 L 272,193 L 278,199 L 279,199 L 281,201 L 281,202 L 283,204 L 283,205 L 284,206 L 284,207 L 289,212 L 289,213 L 292,216 L 292,217 L 299,224 L 299,225 L 301,227 L 304,227 L 306,229 L 308,229 L 310,231 L 311,231 L 312,232 L 311,233 L 313,231 L 318,231 L 320,233 L 324,233 L 325,234 L 326,234 L 327,235 L 333,235 L 336,238 L 336,239 L 335,240 L 335,245 L 334,246 L 335,247 L 335,248 L 336,249 L 337,249 L 338,250 L 338,251 L 339,252 L 341,252 L 342,251 L 348,251 L 350,249 L 370,249 L 371,250 L 372,250 L 373,251 L 381,251 L 382,252 L 383,252 L 384,253 L 391,253 L 393,255 L 395,255 L 396,256 L 397,256 L 398,257 L 407,257 L 408,258 L 408,261 L 403,266 L 403,269 L 404,270 L 404,271 L 407,274 L 407,281 L 408,282 L 408,283 L 400,291 L 400,292 L 399,293 L 399,294 L 398,295 L 398,296 L 397,297 L 394,297 L 393,298 L 392,298 L 391,299 L 386,299 L 385,300 L 383,300 L 382,301 L 368,301 L 365,304 L 365,306 L 361,310 L 361,311 L 360,312 L 360,313 L 354,319 L 352,319 L 349,322 L 348,322 L 346,324 L 345,324 L 344,325 L 342,325 L 340,327 L 338,327 L 336,329 L 335,329 L 333,331 L 332,331 L 324,339 L 322,339 L 319,342 L 319,346 L 321,348 L 321,350 L 323,352 L 323,354 L 327,358 L 327,360 L 329,362 L 329,364 L 327,366 L 327,369 L 325,371 L 324,371 L 323,372 L 323,374 L 322,375 L 322,377 L 320,379 L 318,379 L 317,380 L 316,380 L 315,379 L 314,379 L 313,378 L 312,378 L 311,377 L 310,377 L 306,373 L 305,373 L 304,372 L 303,372 L 300,369 L 299,369 L 297,367 L 296,367 L 294,365 L 293,365 L 291,363 L 290,363 L 288,361 L 285,361 L 283,363 L 282,363 L 281,364 L 274,364 L 273,365 L 270,365 L 268,367 L 264,367 L 263,368 L 262,368 L 261,369 L 258,369 L 257,370 L 256,370 L 255,371 L 250,371 L 249,370 L 249,369 L 248,368 L 248,367 L 246,365 L 243,365 L 242,364 L 241,364 L 240,363 L 238,363 L 235,360 L 235,356 L 233,354 L 233,353 L 231,351 L 231,350 L 227,346 L 227,344 L 228,343 L 228,342 L 229,341 L 229,339 L 231,337 L 231,335 L 233,333 L 233,328 L 232,327 L 231,327 L 230,326 L 229,326 L 228,325 L 226,325 L 224,323 L 221,323 L 219,321 L 217,321 L 216,320 L 215,320 L 214,319 L 212,319 L 210,317 L 208,317 L 207,316 L 206,316 L 205,315 L 202,315 L 200,313 L 198,313 L 196,311 L 194,311 L 192,309 L 189,309 L 188,308 L 187,308 L 186,307 L 185,307 L 181,303 L 180,303 L 177,300 L 177,297 L 175,295 L 173,295 L 172,294 L 166,294 L 165,293 L 158,293 L 157,294 L 155,294 L 154,293 L 154,291 L 160,285 L 162,285 L 164,283 L 166,283 L 168,281 L 170,281 L 171,280 L 172,280 L 173,279 L 173,278 L 175,276 L 175,274 L 177,272 L 177,270 L 179,268 L 179,266 L 181,264 L 181,258 L 183,256 L 183,248 L 185,246 L 185,242 L 186,241 L 186,240 L 188,238 L 188,233 L 189,232 L 189,222 L 187,220 L 187,218 L 185,216 L 185,215 L 184,214 L 184,213 L 183,212 L 183,211 L 182,210 L 182,209 L 183,208 L 184,208 L 185,207 L 187,207 L 188,206 L 190,206 L 191,205 L 191,204 L 192,203 L 193,203 L 195,201 L 202,201 L 203,200 L 206,200 L 207,201 L 214,201 L 216,199 L 216,196 L 215,195 L 215,191 L 214,190 L 214,188 L 213,187 L 213,183 L 212,182 L 212,181 L 211,180 L 211,174 L 209,172 L 209,167 L 208,166 L 208,164 L 207,163 L 207,159 L 206,158 L 206,157 L 205,156 L 205,155 L 203,153 L 204,152 L 205,152 L 204,152 L 203,151 L 203,149 L 203,153 L 201,155 L 200,155 L 195,160 L 195,161 L 193,163 L 192,163 L 188,167 L 187,167 L 185,169 L 184,169 L 170,183 L 169,183 L 167,185 L 165,185 L 163,183 L 163,182 L 163,183 L 164,184 L 164,186 L 165,187 L 165,189 L 166,190 L 166,191 L 170,195 L 170,196 L 171,197 L 171,198 L 173,200 L 173,204 L 171,206 L 171,208 L 170,209 L 170,210 L 169,211 L 168,211 L 167,212 L 167,214 L 163,218 L 163,219 L 162,220 L 162,221 L 161,222 L 158,222 L 157,221 L 156,221 L 154,219 L 148,219 L 147,218 L 147,217 L 147,220 L 145,222 L 144,222 L 143,221 L 140,221 L 138,219 L 135,219 L 134,220 L 133,220 L 132,221 L 132,222 L 131,223 L 130,223 L 126,227 L 120,227 L 119,228 L 117,228 L 116,229 L 110,229 L 108,231 L 106,231 L 105,232 L 104,232 L 103,231 L 102,231 L 100,229 L 98,229 L 96,231 L 94,231 L 92,233 L 86,233 L 83,236 L 83,239 L 82,240 L 82,241 L 81,242 L 81,248 L 78,251 L 78,256 L 77,257 L 76,257 L 75,258 L 74,258 L 73,259 L 70,259 L 69,258 L 67,258 L 66,259 L 64,259 L 63,260 L 63,262 L 62,263 L 62,265 L 61,266 L 61,267 L 59,269 L 58,269 L 55,272 L 55,274 L 49,280 L 49,284 L 47,286 L 46,286 L 45,285 L 44,285 L 37,278 L 36,278 L 35,277 L 34,277 L 33,276 L 34,277 L 35,277 L 36,278 L 37,278 L 44,285 L 45,285 L 46,286 L 47,286 L 49,284 L 49,280 L 55,274 L 55,272 L 58,269 L 59,269 L 61,267 L 61,266 L 62,265 L 62,263 L 63,262 L 63,260 L 64,259 L 66,259 L 67,258 L 69,258 L 70,259 L 73,259 L 74,258 L 75,258 L 76,257 L 77,257 L 78,256 L 78,251 L 81,248 L 81,242 L 82,241 L 82,240 L 83,239 L 83,236 L 86,233 L 92,233 L 94,231 L 96,231 L 98,229 L 100,229 L 102,231 L 103,231 L 104,232 L 105,232 L 106,231 L 108,231 L 110,229 L 116,229 L 117,228 L 119,228 L 120,227 L 126,227 L 130,223 L 131,223 L 132,222 L 132,221 L 133,220 L 134,220 L 135,219 L 138,219 L 140,221 L 143,221 L 144,222 L 145,222 L 148,219 L 154,219 L 156,221 L 157,221 L 158,222 L 161,222 L 162,221 L 162,220 L 163,219 L 163,218 L 167,214 L 167,212 L 168,211 L 169,211 L 170,210 L 170,209 L 171,208 L 171,206 L 173,204 L 173,200 L 171,198 L 171,197 L 170,196 L 170,195 L 166,191 L 166,190 L 165,189 L 165,187 L 164,186 L 165,185 L 167,185 L 169,183 L 170,183 L 184,169 L 185,169 L 187,167 L 188,167 L 192,163 L 193,163 L 195,161 L 195,160 L 200,155 L 201,155 L 202,154 L 204,154 L 205,155 L 205,156 L 206,157 L 206,158 L 207,159 L 207,163 L 208,164 L 208,166 L 209,167 L 209,172 L 211,174 L 211,180 L 212,181 L 212,182 L 213,183 L 213,187 L 214,188 L 214,190 L 215,191 L 215,195 L 216,196 L 216,199 L 214,201 L 207,201 L 206,200 L 203,200 L 202,201 L 195,201 L 193,203 L 192,203 L 191,204 L 191,205 L 190,206 L 188,206 L 187,207 L 186,207 L 185,206 L 185,205 L 185,207 L 184,208 L 183,208 L 182,209 L 182,210 L 183,211 L 183,212 L 184,213 L 184,214 L 185,215 L 185,216 L 187,218 L 187,220 L 189,222 L 189,232 L 188,233 L 188,238 L 186,240 L 186,241 L 185,242 L 185,246 L 183,248 L 183,256 L 181,258 L 181,264 L 179,266 L 179,268 L 177,270 L 177,272 L 175,274 L 175,276 L 173,278 L 173,279 L 172,280 L 171,280 L 170,281 L 168,281 L 166,283 L 164,283 L 162,285 L 160,285 L 154,291 L 154,292 L 153,293 L 149,293 L 154,293 L 155,294 L 157,294 L 158,293 L 165,293 L 166,294 L 172,294 L 173,295 L 175,295 L 177,297 L 177,300 L 180,303 L 181,303 L 185,307 L 186,307 L 187,308 L 188,308 L 189,309 L 192,309 L 194,311 L 196,311 L 198,313 L 200,313 L 202,315 L 205,315 L 206,316 L 207,316 L 208,317 L 210,317 L 212,319 L 214,319 L 215,320 L 216,320 L 217,321 L 219,321 L 221,323 L 224,323 L 226,325 L 228,325 L 229,326 L 230,326 L 231,327 L 232,327 L 233,328 L 233,333 L 231,335 L 231,337 L 229,339 L 229,341 L 228,342 L 228,343 L 227,344 L 227,346 L 231,350 L 231,351 L 233,353 L 233,354 L 235,356 L 235,360 L 238,363 L 240,363 L 241,364 L 242,364 L 243,365 L 246,365 L 248,367 L 248,368 L 249,369 L 249,370 L 250,371 L 255,371 L 256,370 L 257,370 L 258,369 L 261,369 L 262,368 L 263,368 L 264,367 L 268,367 L 270,365 L 273,365 L 274,364 L 281,364 L 282,363 L 283,363 L 285,361 L 288,361 L 290,363 L 291,363 L 293,365 L 294,365 L 296,367 L 297,367 L 299,369 L 300,369 L 303,372 L 304,372 L 305,373 L 306,373 L 310,377 L 311,377 L 312,378 L 313,378 L 314,379 L 315,379 L 316,380 L 316,384 L 317,385 L 317,386 L 318,387 L 319,387 L 321,389 L 322,389 L 325,392 L 325,393 L 326,394 L 326,395 L 327,396 L 327,401 L 329,403 L 331,403 L 333,405 L 333,411 L 334,412 L 335,412 L 336,411 L 338,411 L 340,409 L 340,408 L 341,407 L 341,406 L 343,404 L 343,402 L 351,394 L 351,389 L 350,388 L 338,388 L 337,387 L 337,386 L 336,385 L 334,385 L 333,384 L 332,384 L 331,383 L 328,383 L 327,382 L 326,382 L 324,380 L 323,380 L 321,378 L 322,377 L 322,375 L 323,374 L 323,372 L 324,371 L 325,371 L 327,369 L 327,366 L 330,363 L 332,363 L 330,363 L 327,360 L 327,358 L 323,354 L 323,352 L 321,350 L 321,348 L 319,346 L 319,342 L 322,339 L 324,339 L 332,331 L 333,331 L 335,329 L 336,329 L 338,327 L 340,327 L 342,325 L 344,325 L 345,324 L 346,324 L 348,322 L 349,322 L 352,319 L 354,319 L 360,313 L 360,312 L 361,311 L 361,310 L 365,306 L 365,304 L 368,301 L 382,301 L 383,300 L 385,300 L 386,299 L 391,299 L 392,298 L 393,298 L 394,297 L 397,297 L 398,296 L 398,295 L 399,294 L 399,293 L 400,292 L 400,291 L 408,283 L 408,282 L 409,281 L 408,282 L 407,281 L 407,274 L 404,271 L 404,270 L 403,269 L 403,266 L 408,261 L 408,259 L 409,258 L 411,258 L 412,257 L 414,257 L 412,257 L 411,258 L 408,258 L 407,257 L 398,257 L 397,256 L 396,256 L 395,255 L 393,255 L 391,253 L 384,253 L 383,252 L 382,252 L 381,251 L 373,251 L 372,250 L 371,250 L 370,249 L 350,249 L 348,251 L 342,251 L 341,252 L 339,252 L 338,251 L 338,250 L 337,249 L 336,249 L 335,248 L 335,247 L 334,246 L 335,245 L 335,240 L 336,239 L 336,238 L 337,237 L 336,238 L 333,235 L 327,235 L 326,234 L 325,234 L 324,233 L 320,233 L 318,231 L 310,231 L 308,229 L 306,229 L 304,227 L 301,227 L 299,225 L 299,224 L 292,217 L 292,216 L 289,213 L 289,212 L 284,207 L 284,206 L 283,205 L 283,204 L 281,202 L 281,201 L 279,199 L 278,199 L 272,193 L 270,193 L 265,188 L 265,185 L 266,184 L 266,183 L 267,182 L 267,180 L 265,178 L 265,177 L 264,176 L 264,175 L 262,173 L 262,172 L 261,171 L 261,169 L 260,168 L 260,167 L 259,166 L 259,164 L 257,162 L 257,156 L 258,155 L 260,155 L 261,154 L 260,155 L 258,155 L 257,156 L 256,156 L 255,155 L 252,155 L 249,152 L 249,150 L 245,146 L 245,144 L 246,143 L 244,145 L 242,145 L 240,147 L 239,147 L 238,148 L 237,148 L 236,149 L 234,149 L 233,150 L 228,150 L 227,149 L 224,149 L 222,147 L 216,147 L 213,144 L 213,142 L 211,140 L 211,139 L 210,138 L 206,138 L 203,135 L 203,133 L 202,132 L 202,131 L 204,129 L 205,129 L 207,127 L 209,127 L 210,126 L 211,126 L 212,125 L 215,125 L 216,124 L 217,124 L 218,123 L 222,123 L 226,119 L 226,118 L 227,117 L 227,112 L 228,111 L 228,110 L 229,109 L 229,104 L 230,103 L 230,102 L 229,101 L 229,100 L 228,99 L 227,99 L 225,97 L 223,97 L 222,96 L 221,96 L 220,95 L 218,95 L 217,94 L 216,95 L 214,95 L 213,96 L 207,96 L 206,97 L 202,97 L 198,93 L 198,92 L 197,91 L 197,90 L 194,87 L 194,86 L 191,83 L 188,83 L 186,81 L 186,80 L 185,79 L 185,77 L 186,76 L 186,75 L 187,74 L 187,72 L 191,68 L 191,66 L 193,64 L 194,64 L 195,63 L 196,63 L 197,62 L 197,58 L 200,55 L 200,54 L 199,53 L 199,50 L 197,48 L 197,46 L 195,44 L 195,42 L 193,40 L 193,38 L 191,36 L 191,34 L 190,33 L 190,32 L 189,31 L 189,30 L 188,29 L 188,28 L 187,27 L 187,26 L 186,25 L 186,24 L 185,23 L 185,22 L 183,20 L 183,18 L 181,16 L 181,14 L 179,12 L 179,10 L 178,9 L 169,9 L 168,10 L 167,10 L 166,11 L 157,11 L 155,9 L 155,8 L 155,9 L 156,10 L 156,11 L 155,12 L 153,12 L 152,13 L 149,13 L 147,11 L 147,10 L 143,6 L 143,5 L 140,2 L 138,2" fill="none" stroke="black" stroke-width="2" /></svg>